<svg viewBox="0 0 593.72 467.49" xmlns="http://www.w3.org/2000/svg"><g stroke="#fff" stroke-miterlimit="10"><path d="m284.46 302a43 43 0 1 0 25.08.16 5.67 5.67 0 0 1 -4-5.42v-102.84a5.72 5.72 0 0 1 4.67-5.6 71 71 0 0 0 18.26-6.16 5.7 5.7 0 0 1 7 1.48l37.53 46.16a5.73 5.73 0 0 1 .46 6.52 43 43 0 1 0 23.35-19.11 5.66 5.66 0 0 1 -6.2-1.84l-37.45-46.14a5.73 5.73 0 0 1 0-7.13 71.09 71.09 0 0 0 15.14-43.88 72.34 72.34 0 0 0 -.89-11.28 8.55 8.55 0 0 1 4.71-9.06l38.67-18.64a5.64 5.64 0 0 1 6.08.73 43 43 0 1 0 -15.31-32.87v1.23a5.63 5.63 0 0 1 -3.16 5.29l-38.62 18.61a8.6 8.6 0 0 1 -10.09-2 71.32 71.32 0 0 0 -105.6-.13 8.57 8.57 0 0 1 -10.06 2l-38.58-18.59a5.71 5.71 0 0 1 -3.26-5.29c0-.4 0-.81 0-1.21a43 43 0 1 0 -15.29 32.82 5.66 5.66 0 0 1 6.09-.73l38.6 18.58a8.49 8.49 0 0 1 4.73 9 71.46 71.46 0 0 0 14.21 55.4 5.73 5.73 0 0 1 0 7.16l-37.77 46a5.65 5.65 0 0 1 -6.14 1.81 42.95 42.95 0 0 0 -56.62 43.07 43 43 0 1 0 80-24.1 5.62 5.62 0 0 1 .44-6.44l37.73-45.94a5.71 5.71 0 0 1 7-1.46 71.07 71.07 0 0 0 18.73 6.25 5.71 5.71 0 0 1 4.71 5.6l-.05 102.57a5.66 5.66 0 0 1 -4 5.44" fill="none" stroke-width="8"/><g fill="#fff"><path d="m.5 445.12a24.87 24.87 0 0 1 1.25-7.67 23.46 23.46 0 0 1 3.67-7 20.06 20.06 0 0 1 5.81-5.16 15 15 0 0 1 7.73-2h58.49a4.82 4.82 0 1 1 0 9.63h-56.38a11.16 11.16 0 0 0 -5.67 1.26 10.26 10.26 0 0 0 -3.4 3.02 10.61 10.61 0 0 0 -1.71 4 17.69 17.69 0 0 0 0 7.93 10.75 10.75 0 0 0 1.71 4 10.48 10.48 0 0 0 3.41 3.06 11.16 11.16 0 0 0 5.67 1.25h56.37a4.82 4.82 0 1 1 0 9.63h-59.45a13.51 13.51 0 0 1 -7.33-2 19 19 0 0 1 -5.46-5.17 24.52 24.52 0 0 1 -3.47-7.07 26 26 0 0 1 -1.24-7.71z"/><path d="m174 445.12a24.93 24.93 0 0 1 -1.25 7.68 23.73 23.73 0 0 1 -3.66 7 20.11 20.11 0 0 1 -5.82 5.17 14.94 14.94 0 0 1 -7.73 2h-45.79a14.61 14.61 0 0 1 -7.32-2.25 20.23 20.23 0 0 1 -5.43-5.15 24 24 0 0 1 -3.46-6.92 25 25 0 0 1 -1.2-7.53 24.57 24.57 0 0 1 1.25-7.67 23.66 23.66 0 0 1 3.66-7 20.22 20.22 0 0 1 5.82-5.16 15 15 0 0 1 7.73-2h45.75a14.71 14.71 0 0 1 7.32 2.26 20.08 20.08 0 0 1 5.47 5.17 24 24 0 0 1 3.46 6.92 25 25 0 0 1 1.2 7.48zm-15 11a10.5 10.5 0 0 0 3.47-3.06 10.9 10.9 0 0 0 1.7-4 17.69 17.69 0 0 0 0-7.93 10.75 10.75 0 0 0 -1.7-4 10.29 10.29 0 0 0 -3.47-3.06 11.2 11.2 0 0 0 -5.61-1.26h-40.53a11.12 11.12 0 0 0 -5.66 1.26 10.39 10.39 0 0 0 -3.42 3.06 10.75 10.75 0 0 0 -1.7 4 17.69 17.69 0 0 0 0 7.93 10.9 10.9 0 0 0 1.7 4 10.62 10.62 0 0 0 3.42 3.06 11.12 11.12 0 0 0 5.66 1.25h40.54a11.2 11.2 0 0 0 5.6-1.26z"/><path d="m192.52 465.19a4.79 4.79 0 0 1 -8.53-3 4.15 4.15 0 0 1 1-2.91l24.38-32.81a13.27 13.27 0 0 1 10.53-5.21 13 13 0 0 1 5.72 1.3 11.58 11.58 0 0 1 4.41 3.61l24.38 32.61a7 7 0 0 1 1 1.55 4.43 4.43 0 0 1 .4 1.86 4.8 4.8 0 0 1 -4.81 4.81 4.49 4.49 0 0 1 -3.81-1.9l-23.38-31.2a22.08 22.08 0 0 0 -1.75-1.76 2.93 2.93 0 0 0 -4.32 0 12.83 12.83 0 0 0 -1.65 1.76z"/><path d="m265.86 445.12a24.87 24.87 0 0 1 1.25-7.67 23.46 23.46 0 0 1 3.67-7 20.06 20.06 0 0 1 5.81-5.16 15 15 0 0 1 7.73-2h58.49a4.82 4.82 0 1 1 0 9.63h-56.38a11.16 11.16 0 0 0 -5.67 1.26 10.26 10.26 0 0 0 -3.41 3.06 10.61 10.61 0 0 0 -1.71 4 17.69 17.69 0 0 0 0 7.93 10.75 10.75 0 0 0 1.71 4 10.48 10.48 0 0 0 3.41 3.06 11.16 11.16 0 0 0 5.67 1.25h56.38a4.82 4.82 0 1 1 0 9.63h-59.49a13.51 13.51 0 0 1 -7.33-2 19.21 19.21 0 0 1 -5.47-5.17 24.75 24.75 0 0 1 -3.46-7.07 26 26 0 0 1 -1.2-7.75z"/><path d="m434.81 465.59a4.82 4.82 0 0 1 -8.23-3.41v-12.24h-59.29v12.24a4.82 4.82 0 1 1 -9.63 0v-34.11a4.82 4.82 0 1 1 9.63 0v12.24h59.29v-12.24a4.82 4.82 0 1 1 9.63 0v34.11a4.66 4.66 0 0 1 -1.4 3.41z"/><path d="m484.17 441.71a4.82 4.82 0 0 1 -3.41 8.23h-30.1a5 5 0 0 1 -3.11-1.56 4.53 4.53 0 0 1 -1.31-3.26 4.8 4.8 0 0 1 4.82-4.81h29.7a4.68 4.68 0 0 1 3.41 1.4z"/><path d="m503.83 465.59a4.82 4.82 0 0 1 -8.23-3.41v-34.11a4.82 4.82 0 1 1 9.64 0v34.11a4.63 4.63 0 0 1 -1.41 3.41z"/><path d="m585 424.66a4.82 4.82 0 0 1 8.23 3.41v29.19a9.47 9.47 0 0 1 -2.76 6.92 9.21 9.21 0 0 1 -6.87 2.81 9.95 9.95 0 0 1 -5.22-1.5l-46-28.09c-1.27-.74-2.32-1.32-3.16-1.76a4.79 4.79 0 0 0 -2-.65c-1 0-1.64.64-1.91 1.91a28.39 28.39 0 0 0 -.4 5.51v19.77a4.82 4.82 0 1 1 -9.63 0v-29.18a9.49 9.49 0 0 1 2.76-6.92 9.25 9.25 0 0 1 6.87-2.81 10 10 0 0 1 2.76.4 9.83 9.83 0 0 1 2.46 1.11l46 28.09c1.27.73 2.32 1.32 3.16 1.75a4.69 4.69 0 0 0 2 .66c1 0 1.64-.64 1.91-1.91a29.26 29.26 0 0 0 .4-5.52v-19.78a4.65 4.65 0 0 1 1.4-3.41z"/></g></g></svg>